<?xml version="1.0" standalone="no"?>
<!DOCTYPE svg PUBLIC "-//W3C//DTD SVG 20010904//EN"
 "http://www.w3.org/TR/2001/REC-SVG-20010904/DTD/svg10.dtd">
<svg version="1.0" xmlns="http://www.w3.org/2000/svg"
 width="981.000000pt" height="981.000000pt" viewBox="0 0 981.000000 981.000000"
 preserveAspectRatio="xMidYMid meet">

<g transform="translate(0.000000,981.000000) scale(0.100000,-0.100000)"
fill="#000000" stroke="none">
<path d="M4537 9795 c-266 -20 -389 -38 -682 -101 -637 -138 -1231 -400 -1770
-778 -1137 -800 -1886 -2052 -2049 -3426 -76 -641 -24 -1312 150 -1918 257
-900 743 -1681 1434 -2306 209 -189 343 -293 585 -454 506 -335 1103 -586
1670 -701 295 -59 404 -76 645 -96 790 -67 1646 81 2378 409 267 120 478 237
747 415 208 138 328 232 540 422 1250 1122 1840 2817 1554 4469 -114 658 -343
1250 -702 1815 -289 455 -702 907 -1122 1231 -598 461 -1236 759 -1965 918
-300 66 -397 80 -695 101 -248 18 -473 17 -718 0z m1434 -1925 c267 -27 451
-97 658 -250 255 -189 416 -426 502 -740 l24 -85 0 -1205 c0 -1344 5 -1247
-71 -1525 -101 -366 -283 -673 -569 -961 -178 -178 -305 -279 -495 -390 -334
-197 -682 -288 -1105 -288 -378 0 -679 69 -988 227 -404 206 -768 553 -991
946 -121 211 -201 443 -252 726 -26 141 -26 556 -1 700 85 489 297 895 649
1242 346 342 735 536 1241 618 42 7 41 6 77 120 57 181 156 341 300 486 216
216 460 340 740 374 136 17 158 17 281 5z"/>
<path d="M5718 7031 c-83 -27 -135 -61 -206 -134 -74 -78 -117 -163 -132 -262
-5 -38 -10 -175 -10 -302 l0 -233 -292 0 c-356 0 -449 -12 -638 -77 -248 -85
-478 -255 -661 -488 -93 -119 -160 -240 -214 -389 -62 -173 -70 -226 -69 -481
0 -215 2 -236 26 -325 58 -211 117 -338 234 -501 109 -151 349 -360 502 -438
472 -239 1080 -192 1485 117 353 268 552 613 586 1013 6 63 11 571 12 1129 2
1000 2 1016 -18 1072 -37 101 -121 202 -211 255 -104 61 -279 81 -394 44z
m-350 -2189 l-3 -298 -37 -75 c-114 -230 -378 -320 -613 -211 -113 54 -218
180 -251 306 -28 105 -10 244 43 336 64 109 197 206 314 229 24 5 158 9 297
10 l253 1 -3 -298z"/>
</g>
</svg>
